<svg width="129" height="20" viewBox="0 0 129 20" fill="none" xmlns="http://www.w3.org/2000/svg">
<path fill-rule="evenodd" clip-rule="evenodd" d="M16.015 10.8758L22.8168 17.9167C22.8984 18.0001 22.9635 18.0992 23.0081 18.2086C23.0527 18.3179 23.0761 18.4353 23.0769 18.554C23.0777 18.6727 23.0559 18.7904 23.0127 18.9004C22.9696 19.0104 22.9059 19.1105 22.8254 19.195L22.3263 19.7098C22.186 19.862 22.0007 19.9613 21.7998 19.9921C21.6671 20.0104 21.532 19.9967 21.4053 19.9521C21.2786 19.9074 21.1635 19.833 21.0692 19.7347L12.7633 11.1368C12.6188 10.9875 12.5043 10.8103 12.4261 10.6152C12.3479 10.4201 12.3077 10.2109 12.3077 9.99966C12.3077 9.78843 12.3479 9.57928 12.4261 9.38416C12.5043 9.18904 12.6188 9.0118 12.7633 8.86257L21.0692 0.264663C21.1501 0.180763 21.2462 0.114199 21.352 0.0687853C21.4578 0.0233712 21.5712 0 21.6857 0C21.8002 0 21.9136 0.0233712 22.0194 0.0687853C22.1252 0.114199 22.2213 0.180763 22.3023 0.264663L22.8168 0.806136C22.8978 0.889901 22.9621 0.989381 23.006 1.0989C23.0499 1.20841 23.0725 1.3258 23.0725 1.44436C23.0725 1.56292 23.0499 1.68031 23.006 1.78983C22.9621 1.89934 22.8978 1.99883 22.8168 2.0826L16.015 9.12532C15.7919 9.35808 15.6667 9.67268 15.6667 10.0006C15.6667 10.3284 15.7919 10.643 16.015 10.8758ZM7.06167 9.13279L0.262479 2.08999C0.179976 2.00656 0.114291 1.90701 0.0692358 1.79709C0.0241803 1.68718 0.00065126 1.56909 1.33286e-05 1.44968C-0.000624602 1.33028 0.0216429 1.21192 0.0655212 1.10149C0.1094 0.991068 0.174019 0.890772 0.255625 0.806412L0.752792 0.289779C0.894371 0.138581 1.07979 0.0394596 1.28082 0.00750439C1.41345 -0.0102903 1.54827 0.00366206 1.67488 0.0482906C1.80149 0.0929192 1.91653 0.167026 2.01114 0.264921L10.3138 8.86295C10.4582 9.01218 10.5727 9.18942 10.6509 9.38454C10.729 9.57966 10.7692 9.78882 10.7692 10.0001C10.7692 10.2113 10.729 10.4204 10.6509 10.6156C10.5727 10.8107 10.4582 10.9879 10.3138 11.1372L2.01114 19.7352C1.9301 19.8191 1.83389 19.8857 1.72799 19.9312C1.62209 19.9766 1.50859 20 1.39396 20C1.27934 20 1.16583 19.9766 1.05994 19.9312C0.954041 19.8857 0.857825 19.8191 0.77679 19.7352L0.262479 19.2026C0.181407 19.1187 0.117095 19.019 0.0732173 18.9094C0.0293392 18.7997 0.00675717 18.6821 0.00675717 18.5634C0.00675717 18.4447 0.0293392 18.3272 0.0732173 18.2175C0.117095 18.1079 0.181407 18.0082 0.262479 17.9243L7.06167 10.8833C7.28466 10.6505 7.40979 10.3359 7.40979 10.008C7.40979 9.68016 7.28466 9.36556 7.06167 9.13279Z" fill="white"/>
<path fill-rule="evenodd" clip-rule="evenodd" d="M57.9248 8.66846C57.4151 8.33569 56.818 8.16217 56.2094 8.16998C55.7129 8.16206 55.2228 8.28331 54.7873 8.52185C54.5095 8.66893 54.2611 8.86566 54.0542 9.10229V4.79791H52.4415V15.3539H54.0542V14.5869C54.2587 14.8189 54.5018 15.014 54.7726 15.1633C55.216 15.3937 55.7099 15.5096 56.2094 15.5006C56.816 15.5088 57.4119 15.3407 57.9248 15.0167C58.4392 14.6978 58.8593 14.2473 59.1416 13.7119C59.4482 13.1397 59.6046 12.499 59.5961 11.8499C59.6069 11.2006 59.4504 10.5593 59.1416 9.98796C58.8626 9.44632 58.4421 8.99035 57.9248 8.66846ZM57.6755 12.9495C57.5162 13.264 57.2726 13.528 56.9718 13.7119C56.6607 13.8935 56.3056 13.9857 55.9455 13.9785C55.5809 13.9846 55.2214 13.8925 54.9046 13.7119C54.6035 13.5284 54.3597 13.2643 54.2008 12.9495C54.0291 12.6036 53.9436 12.2214 53.9516 11.8353C53.9436 11.4492 54.0291 11.0669 54.2008 10.721C54.3574 10.4084 54.602 10.1485 54.9046 9.9733C55.2184 9.78441 55.5792 9.68786 55.9455 9.69474C56.3073 9.68666 56.6637 9.7834 56.9718 9.9733C57.274 10.1489 57.5185 10.4087 57.6755 10.721C57.8574 11.0638 57.9491 11.4473 57.9421 11.8353C57.9491 12.2233 57.8574 12.6067 57.6755 12.9495ZM40.4287 13.8881C41.0542 13.8881 41.582 13.7953 42.0121 13.6096C42.4339 13.4258 42.8126 13.1556 43.1237 12.8165L44.2673 13.9601C43.7944 14.4415 43.2315 14.8251 42.6105 15.089C41.9752 15.3627 41.2471 15.4995 40.426 15.4995C39.718 15.5061 39.0157 15.3715 38.3601 15.1037C37.7416 14.8388 37.1819 14.4536 36.7137 13.9703C36.2456 13.487 35.8782 12.9154 35.6332 12.2887C35.3768 11.6304 35.2474 10.9294 35.252 10.2228C35.2467 9.52047 35.3766 8.82363 35.6345 8.17029C35.8782 7.54088 36.2468 6.96734 36.7181 6.48426C37.1995 5.98894 37.7768 5.59697 38.4148 5.33229C39.0528 5.06761 39.7381 4.93577 40.4287 4.94483C41.2599 4.94439 41.9779 5.08212 42.5826 5.35801C43.1837 5.62737 43.7306 6.00406 44.1966 6.46959L43.0531 7.61316C42.7429 7.27587 42.3625 7.01064 41.9388 6.83612C41.5096 6.65042 41.0063 6.55756 40.4287 6.55756C39.9513 6.55246 39.4777 6.6431 39.0359 6.82413C38.6196 6.99642 38.2447 7.2554 37.9363 7.58384C37.6262 7.91841 37.3873 8.31244 37.2339 8.74207C37.0635 9.21694 36.9791 9.71837 36.9847 10.2228C36.979 10.7264 37.063 11.2269 37.2326 11.701C37.3885 12.134 37.6275 12.5325 37.9363 12.8739C38.2478 13.1957 38.6221 13.4502 39.0359 13.6216C39.4777 13.8026 39.9513 13.8932 40.4287 13.8881ZM46.0659 8.31645L47.8685 12.9014L49.7752 8.31645H51.5638L48.2944 15.4271L46.9895 18.286H45.2009L46.9675 14.6461L44.2919 8.31645H46.0659ZM64.1244 8.16866C64.781 8.16821 65.3586 8.31971 65.8571 8.62315C66.3581 8.92092 66.7672 9.35124 67.0393 9.86669C67.3388 10.4198 67.4903 11.041 67.4791 11.67C67.4789 11.7928 67.4691 11.9153 67.4498 12.0365C67.4379 12.1695 67.4184 12.3017 67.3911 12.4324H62.1418C62.1837 12.6108 62.248 12.7832 62.333 12.9455C62.5024 13.271 62.762 13.5408 63.0808 13.7226C63.4236 13.9044 63.807 13.9961 64.195 13.9891C64.5376 13.9935 64.8776 13.9287 65.1946 13.7985C65.4988 13.6779 65.7701 13.487 65.9863 13.2414L67.0126 14.2824C66.6752 14.6799 66.248 14.9914 65.7664 15.1913C65.2743 15.3974 64.7458 15.5021 64.2123 15.4992C63.5476 15.5095 62.8913 15.3489 62.3064 15.0327C61.7425 14.7137 61.2757 14.2477 60.9556 13.6844C60.6355 13.1212 60.474 12.4817 60.4884 11.8339C60.4809 11.353 60.5697 10.8755 60.7494 10.4293C60.9291 9.98316 61.1961 9.57744 61.5349 9.23597C61.8736 8.8945 62.2772 8.62418 62.7219 8.44089C63.1666 8.25761 63.6434 8.16505 64.1244 8.16866ZM63.0288 9.91333C62.7266 10.0889 62.482 10.3488 62.325 10.6611L62.3237 10.6624C62.2489 10.8051 62.1916 10.9564 62.1531 11.1129H65.8977C65.8601 10.9199 65.7976 10.7326 65.7118 10.5558C65.5745 10.2725 65.3547 10.0374 65.0813 9.88135C64.8179 9.72496 64.4905 9.64677 64.099 9.64677C63.7249 9.63841 63.3553 9.73046 63.0288 9.91333ZM73.1758 8.36093C72.8753 8.23026 72.5504 8.16527 72.2228 8.17033C71.4231 8.17033 70.822 8.44889 70.4195 9.00602C70.4132 9.01478 70.4072 9.0238 70.4011 9.03292L70.3901 9.04933V8.31628H68.7774V15.3543H70.3901V11.4398C70.3901 10.8338 70.5368 10.3895 70.83 10.1069C71.1232 9.82438 71.4946 9.68265 71.9442 9.68176C72.1289 9.67828 72.3126 9.70808 72.4867 9.76973C72.6495 9.83264 72.7952 9.93311 72.9119 10.063L73.9708 8.9767C73.7546 8.71516 73.4831 8.50485 73.1758 8.36093ZM79.8878 13.8881C80.5138 13.8881 81.0416 13.7953 81.4712 13.6096C81.8936 13.4259 82.2727 13.1557 82.5842 12.8165L83.7277 13.9601C83.2549 14.4414 82.692 14.825 82.071 15.089C81.4357 15.3627 80.7075 15.4995 79.8865 15.4995C79.1784 15.5061 78.4761 15.3715 77.8206 15.1037C77.2021 14.8388 76.6424 14.4535 76.1742 13.9703C75.7061 13.487 75.3387 12.9154 75.0936 12.2887C74.8372 11.6303 74.7079 10.9294 74.7125 10.2228C74.7068 9.52054 74.8362 8.8237 75.0936 8.17027C75.3377 7.54075 75.7068 6.9672 76.1786 6.48424C76.6598 5.98909 77.2369 5.59721 77.8747 5.33254C78.5124 5.06786 79.1974 4.93594 79.8878 4.94482C80.7186 4.94437 81.437 5.0821 82.043 5.358C82.6437 5.62749 83.1902 6.00417 83.6558 6.46958L82.5122 7.61315C82.202 7.27585 81.8217 7.01062 81.3979 6.83611C80.9688 6.6504 80.4654 6.55754 79.8878 6.55754C79.4104 6.55244 78.9368 6.64308 78.495 6.82411C78.0787 6.9964 77.7039 7.25539 77.3955 7.58383C77.0849 7.91828 76.8455 8.31232 76.6917 8.74206C76.5213 9.21692 76.4369 9.71835 76.4425 10.2228C76.4372 10.7264 76.5216 11.2269 76.6917 11.7009C76.8476 12.134 77.0867 12.5325 77.3955 12.8738C77.707 13.1957 78.0812 13.4502 78.495 13.6216C78.9368 13.8026 79.4104 13.8932 79.8878 13.8881ZM89.9154 8.65425C89.3444 8.32808 88.6963 8.16101 88.0388 8.17044C87.3841 8.16235 86.7399 8.33482 86.1768 8.66892C85.6287 8.98324 85.1699 9.43238 84.844 9.97376C84.5172 10.5344 84.3495 11.1735 84.3588 11.8224C84.3506 12.4752 84.5177 13.1182 84.8427 13.6844C85.1676 14.2338 85.6261 14.6922 86.1755 15.0172C86.5944 15.2645 87.0582 15.4262 87.5401 15.493C88.022 15.5598 88.5123 15.5304 88.9827 15.4065C89.4531 15.2825 89.8943 15.0665 90.2807 14.7709C90.667 14.4753 90.9909 14.106 91.2336 13.6844C91.5678 13.1213 91.7407 12.4771 91.7334 11.8224C91.7425 11.1722 91.5698 10.5324 91.2349 9.97509C90.9204 9.4253 90.4649 8.96936 89.9154 8.65425ZM89.8128 12.9193C89.651 13.2368 89.4017 13.5014 89.0944 13.6817C88.7727 13.8633 88.4082 13.9554 88.0388 13.9483C87.6697 13.9531 87.3058 13.8612 86.9832 13.6817C86.6802 13.4959 86.4322 13.2328 86.2648 12.9193C86.0941 12.5783 86.0086 12.201 86.0155 11.8197C86.0074 11.443 86.093 11.0702 86.2648 10.7348C86.4332 10.4297 86.6815 10.1763 86.9832 10.0017C87.3029 9.81398 87.668 9.71763 88.0388 9.72319C88.4098 9.7152 88.7756 9.81173 89.0944 10.0017C89.3959 10.1765 89.6442 10.4298 89.8128 10.7348C89.9946 11.0671 90.0865 11.441 90.0794 11.8197C90.0855 12.2034 89.9937 12.5823 89.8128 12.9206V12.9193ZM96.7836 8.1704C97.2834 8.16208 97.774 8.30519 98.191 8.58091C98.598 8.83994 98.932 9.19873 99.1613 9.62319C99.3889 10.0252 99.5083 10.4794 99.5079 10.9414V15.3544H97.8951V11.2932C97.8951 10.8245 97.7445 10.4384 97.4433 10.135C97.1501 9.832 96.7689 9.6805 96.2997 9.6805C96.0081 9.67542 95.7202 9.74615 95.4641 9.88576C95.2236 10.019 95.0255 10.2171 94.8923 10.4575C94.7527 10.7136 94.6819 11.0016 94.687 11.2932V15.3544H93.0743V8.31701H94.687V9.11338C94.8801 8.8813 95.1136 8.68601 95.3761 8.53693C95.8038 8.29055 96.29 8.16394 96.7836 8.1704ZM106.266 8.58091C105.849 8.30519 105.358 8.16208 104.858 8.1704C104.365 8.16394 103.879 8.29055 103.451 8.53693C103.188 8.68581 102.954 8.88111 102.76 9.11338V8.31701H101.147V15.3544H102.76V11.2932C102.755 11.0016 102.826 10.7136 102.965 10.4575C103.098 10.2171 103.297 10.019 103.537 9.88576C103.793 9.74615 104.081 9.67542 104.373 9.6805C104.842 9.6805 105.223 9.832 105.516 10.135C105.82 10.438 105.971 10.8241 105.971 11.2932V15.3544H107.583V10.9414C107.582 10.4785 107.461 10.0238 107.232 9.62186C107.003 9.19844 106.671 8.84018 106.266 8.58091ZM112.404 8.16866C113.06 8.16821 113.638 8.31971 114.136 8.62315C114.637 8.9213 115.046 9.35152 115.319 9.86669C115.618 10.4198 115.77 11.041 115.758 11.67C115.758 11.7927 115.748 11.9153 115.729 12.0365C115.717 12.1695 115.697 12.3016 115.67 12.4324H110.421C110.463 12.6108 110.527 12.7832 110.612 12.9455C110.782 13.271 111.041 13.5408 111.36 13.7226C111.703 13.9044 112.086 13.9962 112.474 13.9891C112.817 13.9934 113.157 13.9286 113.474 13.7985C113.778 13.6775 114.049 13.4867 114.266 13.2414L115.292 14.2824C114.954 14.6796 114.527 14.9911 114.046 15.1913C113.554 15.3972 113.025 15.5019 112.492 15.4992C111.827 15.5096 111.171 15.349 110.586 15.0327C110.022 14.7137 109.555 14.2477 109.235 13.6844C108.915 13.1212 108.753 12.4817 108.768 11.8339C108.76 11.353 108.849 10.8755 109.029 10.4293C109.208 9.98316 109.475 9.57744 109.814 9.23597C110.153 8.8945 110.556 8.62418 111.001 8.44089C111.446 8.25761 111.923 8.16505 112.404 8.16866ZM111.308 9.91333C111.006 10.0885 110.761 10.3485 110.604 10.6611L110.603 10.6624C110.528 10.805 110.471 10.9563 110.433 11.1129H114.176C114.139 10.9199 114.077 10.7325 113.991 10.5558C113.854 10.2726 113.634 10.0376 113.361 9.88135C113.096 9.72496 112.769 9.64677 112.378 9.64677C112.004 9.63831 111.635 9.73037 111.308 9.91333ZM119.226 10.0027C119.551 9.8136 119.921 9.71725 120.297 9.7241C120.619 9.72006 120.939 9.78505 121.235 9.91469C121.526 10.03 121.783 10.2165 121.983 10.4572L123.038 9.38689C122.708 8.99657 122.29 8.68932 121.819 8.48989C121.341 8.27272 120.82 8.16265 120.295 8.16735C119.633 8.15904 118.98 8.32595 118.403 8.65117C117.854 8.9659 117.399 9.42137 117.084 9.97067C116.757 10.5359 116.589 11.1796 116.6 11.8326C116.592 12.4854 116.759 13.1284 117.084 13.6946C117.399 14.2439 117.854 14.6994 118.403 15.0141C118.923 15.2988 119.5 15.4626 120.091 15.493C120.683 15.5235 121.273 15.4199 121.819 15.19C122.288 14.9823 122.704 14.6716 123.036 14.281L121.981 13.2108C121.779 13.4527 121.522 13.6436 121.233 13.7679C120.935 13.8879 120.616 13.9477 120.295 13.9438C119.921 13.9499 119.552 13.858 119.224 13.6773C118.924 13.4944 118.677 13.2368 118.506 12.9296C118.335 12.5885 118.25 12.2112 118.257 11.83C118.247 11.4485 118.333 11.0706 118.506 10.7304C118.676 10.427 118.925 10.1754 119.226 10.0027ZM126.769 8.31683H128.455V9.78295H126.769V15.3542H125.156V9.78295H123.47V8.31683H125.156V5.3846H126.769V8.31683Z" fill="white"/>
</svg>
