<svg width="22" height="22" viewBox="0 0 22 22" fill="none" xmlns="http://www.w3.org/2000/svg">
<path d="M12 15.9291V20H10V15.9291C7.63636 15.591 5.65363 14.0721 4.66851 11.9892C2.06163 11.8186 0 9.65004 0 7V3H4V1H18V3H22V7C22 9.65004 19.9384 11.8186 17.3315 11.9892C16.3464 14.0721 14.3636 15.591 12 15.9291ZM4 5H2V7C2 8.32508 2.85909 9.44951 4.05069 9.8467C4.01722 9.56914 4 9.28658 4 9V5ZM18 5V9C18 9.28658 17.9828 9.56914 17.9493 9.8467C19.1409 9.44951 20 8.32508 20 7V5H18ZM6 3V9C6 11.7614 8.23858 14 11 14C13.7614 14 16 11.7614 16 9V3H6Z" fill="black"/>
<path d="M6 21V19H16V21H6Z" fill="black"/>
</svg>
